<svg width="10" height="13" viewBox="0 0 10 13" fill="none" xmlns="http://www.w3.org/2000/svg">
<path d="M9.52148 1.82812H9.14062V0.380855C9.14062 0.275458 9.09693 0.174759 9.01997 0.102726C8.94298 0.0307179 8.83977 -0.00612386 8.73443 0.00083317L1.11724 0.508646C0.917186 0.521976 0.761719 0.688157 0.761719 0.888667V1.82812H0.380859C0.170523 1.82812 0 1.99864 0 2.20898V3.73242C0 3.94275 0.170523 4.11328 0.380859 4.11328H0.792949L1.52481 12.6517C1.54172 12.8487 1.70655 13 1.9043 13H7.99805C8.19579 13 8.36063 12.8487 8.37751 12.6517L9.10937 4.11328H9.52148C9.73182 4.11328 9.90234 3.94275 9.90234 3.73242V2.20898C9.90234 1.99864 9.73182 1.82812 9.52148 1.82812ZM1.52344 1.24497L8.37891 0.787942V1.82812H1.52344V1.24497ZM7.64842 12.2383H2.2539L2.18862 11.4766H7.71372L7.64842 12.2383ZM7.779 10.7148H2.12334L1.68807 5.63671H8.2143L7.779 10.7148ZM8.27955 4.87499H1.62277L1.55746 4.11328H8.34483L8.27955 4.87499ZM9.14062 3.35156H0.761719V2.58984H9.14062V3.35156Z" fill="#324A59" fill-opacity="0.8"/>
</svg>
