<svg width="10" height="12" viewBox="0 0 10 12" fill="none" xmlns="http://www.w3.org/2000/svg">
<path fill-rule="evenodd" clip-rule="evenodd" d="M4.81283 3.79163C4.24991 3.79163 3.79199 4.24954 3.79199 4.81304C3.79199 5.37596 4.24991 5.83329 4.81283 5.83329C5.37574 5.83329 5.83366 5.37596 5.83366 4.81304C5.83366 4.24954 5.37574 3.79163 4.81283 3.79163M4.81283 6.70829C3.76749 6.70829 2.91699 5.85838 2.91699 4.81304C2.91699 3.76713 3.76749 2.91663 4.81283 2.91663C5.85816 2.91663 6.70866 3.76713 6.70866 4.81304C6.70866 5.85838 5.85816 6.70829 4.81283 6.70829" fill="#324A59" fill-opacity="0.8"/>
<mask id="mask0_2062_2210" style="mask-type:luminance" maskUnits="userSpaceOnUse" x="0" y="0" width="10" height="12">
<path fill-rule="evenodd" clip-rule="evenodd" d="M0 0H9.62471V11.375H0V0Z" fill="white"/>
</mask>
<g mask="url(#mask0_2062_2210)">
<path fill-rule="evenodd" clip-rule="evenodd" d="M4.81226 0.875C2.64109 0.875 0.874755 2.65825 0.874755 4.84925C0.874755 7.637 4.15542 10.353 4.81226 10.4977C5.46909 10.3524 8.74975 7.63642 8.74975 4.84925C8.74975 2.65825 6.98342 0.875 4.81226 0.875V0.875ZM4.81225 11.375C3.76575 11.375 -0.000244141 8.13633 -0.000244141 4.84925C-0.000244141 2.17525 2.15867 0 4.81225 0C7.46584 0 9.62475 2.17525 9.62475 4.84925C9.62475 8.13633 5.85875 11.375 4.81225 11.375V11.375Z" fill="#324A59" fill-opacity="0.8"/>
</g>
</svg>
