<svg width="150" height="166" viewBox="0 0 150 166" fill="none" xmlns="http://www.w3.org/2000/svg">
<path d="M149.205 82.1391L132.612 29.5922C132.441 29.0295 132.093 28.5372 131.619 28.1883C131.146 27.8395 130.572 27.6529 129.984 27.6562H102.328V19.3594C102.331 18.7605 102.137 18.1772 101.775 17.7L94.0312 7.38422V0H88.5V8.29688C88.4967 8.8958 88.6912 9.47906 89.0531 9.95625L96.7969 20.272V49.7812C96.7969 50.5147 96.5055 51.2182 95.9868 51.7368C95.4682 52.2555 94.7647 52.5469 94.0312 52.5469C93.2978 52.5469 92.5943 52.2555 92.0757 51.7368C91.557 51.2182 91.2656 50.5147 91.2656 49.7812V33.1875H85.7344V52.5469C85.7344 53.2804 85.443 53.9838 84.9243 54.5025C84.4057 55.0211 83.7022 55.3125 82.9688 55.3125C82.2353 55.3125 81.5318 55.0211 81.0132 54.5025C80.4945 53.9838 80.2031 53.2804 80.2031 52.5469V33.1875H74.6719V52.5469C74.6719 53.2804 74.3805 53.9838 73.8618 54.5025C73.3432 55.0211 72.6397 55.3125 71.9062 55.3125C71.1728 55.3125 70.4693 55.0211 69.9507 54.5025C69.432 53.9838 69.1406 53.2804 69.1406 52.5469V33.1875H63.6094V52.5469C63.6094 53.2804 63.318 53.9838 62.7993 54.5025C62.2807 55.0211 61.5772 55.3125 60.8438 55.3125C60.1103 55.3125 59.4068 55.0211 58.8882 54.5025C58.3695 53.9838 58.0781 53.2804 58.0781 52.5469V33.1875H52.5469V44.25H49.7812C49.0478 44.25 48.3443 43.9586 47.8257 43.44C47.307 42.9213 47.0156 42.2179 47.0156 41.4844V23.2589L57.2761 13.0261C57.7855 12.4987 58.0727 11.7957 58.0781 11.0625V0H52.5469V9.92859L42.2864 20.1614C41.777 20.6888 41.4898 21.3918 41.4844 22.125V27.6562H19.3594C18.7713 27.6529 18.1979 27.8395 17.7245 28.1883C17.2511 28.5372 16.903 29.0295 16.732 29.5922L0.138282 82.1391C0.0520509 82.4074 0.00546528 82.6869 0 82.9688V157.641C0.00656584 159.839 0.882807 161.946 2.43735 163.5C3.9919 165.055 6.09843 165.931 8.29688 165.938H141.047C143.245 165.931 145.352 165.055 146.906 163.5C148.461 161.946 149.337 159.839 149.344 157.641V82.9688C149.338 82.6869 149.292 82.4074 149.205 82.1391ZM41.9822 44.25C42.5562 45.8617 43.6129 47.2573 45.0084 48.247C46.4039 49.2367 48.0704 49.7724 49.7812 49.7812H52.5469V52.5469C52.5534 54.7453 53.4297 56.8519 54.9842 58.4064C56.5388 59.9609 58.6453 60.8372 60.8438 60.8438C62.8918 60.8384 64.8641 60.0692 66.375 58.6866C67.883 60.0739 69.8572 60.8438 71.9062 60.8438C73.9553 60.8438 75.9295 60.0739 77.4375 58.6866C78.3278 59.5014 79.3866 60.1103 80.5387 60.47C81.6908 60.8297 82.908 60.9313 84.1038 60.7676C85.2996 60.6039 86.4447 60.179 87.4578 59.523C88.4709 58.867 89.3272 57.996 89.9658 56.9719C91.2003 57.6912 92.6025 58.0727 94.0312 58.0781C96.2297 58.0716 98.3362 57.1953 99.8908 55.6408C101.445 54.0862 102.322 51.9797 102.328 49.7812V44.25H110.625C111.358 44.25 112.062 44.5414 112.581 45.06C113.099 45.5787 113.391 46.2821 113.391 47.0156V63.6094C113.391 64.3429 113.099 65.0463 112.581 65.565C112.062 66.0836 111.358 66.375 110.625 66.375H38.7188C37.9853 66.375 37.2818 66.0836 36.7632 65.565C36.2445 65.0463 35.9531 64.3429 35.9531 63.6094V47.0156C35.9531 46.2821 36.2445 45.5787 36.7632 45.06C37.2818 44.5414 37.9853 44.25 38.7188 44.25H41.9822ZM143.812 157.641C143.812 158.374 143.521 159.078 143.002 159.596C142.484 160.115 141.78 160.406 141.047 160.406H8.29688C7.56339 160.406 6.85994 160.115 6.34128 159.596C5.82263 159.078 5.53125 158.374 5.53125 157.641V83.3836L21.3783 33.1875H41.4844V38.7188H38.7188C36.5203 38.7253 34.4138 39.6016 32.8592 41.1561C31.3047 42.7106 30.4284 44.8172 30.4219 47.0156V63.6094C30.4284 65.8078 31.3047 67.9144 32.8592 69.4689C34.4138 71.0234 36.5203 71.8997 38.7188 71.9062H110.625C112.823 71.8997 114.93 71.0234 116.485 69.4689C118.039 67.9144 118.915 65.8078 118.922 63.6094V47.0156C118.915 44.8172 118.039 42.7106 116.485 41.1561C114.93 39.6016 112.823 38.7253 110.625 38.7188H102.328V33.1875H127.965L143.812 83.3836V157.641Z" fill="#C67C4E"/>
<path d="M105.094 94.0312C105.094 93.2977 104.802 92.5943 104.284 92.0756C103.765 91.5569 103.062 91.2656 102.328 91.2656H101.83L99.5072 79.6499C99.3787 78.993 99.0146 78.4055 98.4834 77.9981C97.9522 77.5907 97.2905 77.3913 96.6226 77.4374L52.3726 80.2031C51.7871 80.24 51.2285 80.4623 50.7776 80.8376C50.3267 81.213 50.0068 81.722 49.8642 82.2911L47.6213 91.2656H47.0156C46.2821 91.2656 45.5787 91.5569 45.06 92.0756C44.5414 92.5943 44.25 93.2977 44.25 94.0312V105.094C44.25 105.827 44.5414 106.531 45.06 107.049C45.5787 107.568 46.2821 107.859 47.0156 107.859H47.3226L52.5773 152.433C52.6563 153.104 52.9781 153.723 53.482 154.172C53.9859 154.622 54.637 154.872 55.3125 154.875H94.0312C94.7086 154.875 95.3624 154.626 95.8687 154.176C96.3749 153.726 96.6983 153.106 96.7775 152.433L102.021 107.859H102.328C103.062 107.859 103.765 107.568 104.284 107.049C104.802 106.531 105.094 105.827 105.094 105.094V94.0312ZM49.7812 96.7968H99.5625V102.328H49.7812V96.7968ZM54.7372 85.6043L94.5623 83.1153L96.1884 91.2656H53.3213L54.7372 85.6043ZM54.2063 118.922H95.1652L93.539 132.75H55.8186L54.2063 118.922ZM57.785 149.344L56.4851 138.281H92.8725L91.5726 149.344H57.785ZM95.8012 113.391H53.5425L52.8926 107.859H96.4512L95.8012 113.391Z" fill="#C67C4E"/>
<path d="M11.0625 80.2031H16.5938V85.7344H11.0625V80.2031Z" fill="#C67C4E"/>
<path d="M22.125 80.2031H38.7188V85.7344H22.125V80.2031Z" fill="#C67C4E"/>
<path d="M105.094 149.344H127.219V154.875H105.094V149.344Z" fill="#C67C4E"/>
<path d="M132.75 149.344H138.281V154.875H132.75V149.344Z" fill="#C67C4E"/>
</svg>
